<mxfile host="drawio-plugin" modified="2022-10-03T17:56:28.385Z" agent="5.0 (Windows NT 6.2; Win64; x64) AppleWebKit/537.36 (KHTML, like Gecko) Chrome/97.0.4692.45 Safari/537.36" etag="1KFkO8mpP_bnzXrYTvdY" version="15.5.4" type="embed"><diagram id="23iRSUPoRavnBvh4doch" name="Page-1"><mxGraphModel dx="1383" dy="726" grid="1" gridSize="10" guides="1" tooltips="1" connect="1" arrows="1" fold="1" page="1" pageScale="1" pageWidth="827" pageHeight="1169" math="0" shadow="0"><root><mxCell id="0"/><mxCell id="1" parent="0"/><mxCell id="2" value="乱数用の値を定義" style="rounded=1;whiteSpace=wrap;html=1;" vertex="1" parent="1"><mxGeometry x="320" y="40" width="160" height="40" as="geometry"/></mxCell><mxCell id="3" value="" style="endArrow=none;html=1;rounded=0;" edge="1" parent="1"><mxGeometry width="50" height="50" relative="1" as="geometry"><mxPoint x="400" y="120" as="sourcePoint"/><mxPoint x="399.5" y="80" as="targetPoint"/></mxGeometry></mxCell><mxCell id="4" value="1~100までの乱数を発生させる" style="rounded=1;whiteSpace=wrap;html=1;" vertex="1" parent="1"><mxGeometry x="320" y="120" width="160" height="40" as="geometry"/></mxCell><mxCell id="6" value="" style="endArrow=classic;html=1;rounded=0;" edge="1" parent="1"><mxGeometry width="50" height="50" relative="1" as="geometry"><mxPoint x="399.5" y="160" as="sourcePoint"/><mxPoint x="400" y="200" as="targetPoint"/></mxGeometry></mxCell><mxCell id="7" value="乱数用の値が50未満の場合" style="rhombus;whiteSpace=wrap;html=1;" vertex="1" parent="1"><mxGeometry x="320" y="200" width="160" height="80" as="geometry"/></mxCell><mxCell id="9" value="" style="endArrow=none;html=1;rounded=0;" edge="1" parent="1"><mxGeometry width="50" height="50" relative="1" as="geometry"><mxPoint x="480" y="239.5" as="sourcePoint"/><mxPoint x="680" y="240" as="targetPoint"/></mxGeometry></mxCell><mxCell id="12" value="" style="endArrow=classic;html=1;rounded=0;" edge="1" parent="1"><mxGeometry width="50" height="50" relative="1" as="geometry"><mxPoint x="399.5" y="280" as="sourcePoint"/><mxPoint x="400" y="320" as="targetPoint"/></mxGeometry></mxCell><mxCell id="13" value="50未満の値を出力" style="rounded=1;whiteSpace=wrap;html=1;" vertex="1" parent="1"><mxGeometry x="320" y="320" width="160" height="40" as="geometry"/></mxCell><mxCell id="14" value="" style="endArrow=none;html=1;rounded=0;" edge="1" parent="1"><mxGeometry width="50" height="50" relative="1" as="geometry"><mxPoint x="680" y="320" as="sourcePoint"/><mxPoint x="680" y="240" as="targetPoint"/></mxGeometry></mxCell><mxCell id="15" value="50以上の値を出力" style="rounded=1;whiteSpace=wrap;html=1;" vertex="1" parent="1"><mxGeometry x="600" y="320" width="160" height="40" as="geometry"/></mxCell><mxCell id="440" value="" style="endArrow=classic;html=1;rounded=0;" edge="1" parent="1"><mxGeometry width="50" height="50" relative="1" as="geometry"><mxPoint x="399.5" y="360" as="sourcePoint"/><mxPoint x="400" y="440" as="targetPoint"/></mxGeometry></mxCell><mxCell id="441" value="プログラム終了" style="rounded=1;whiteSpace=wrap;html=1;" vertex="1" parent="1"><mxGeometry x="320" y="440" width="160" height="40" as="geometry"/></mxCell><mxCell id="442" value="" style="endArrow=none;html=1;rounded=0;" edge="1" parent="1"><mxGeometry width="50" height="50" relative="1" as="geometry"><mxPoint x="680" y="400" as="sourcePoint"/><mxPoint x="679.5" y="360" as="targetPoint"/></mxGeometry></mxCell><mxCell id="443" value="" style="endArrow=none;html=1;rounded=0;" edge="1" parent="1"><mxGeometry width="50" height="50" relative="1" as="geometry"><mxPoint x="400" y="401" as="sourcePoint"/><mxPoint x="680" y="400.5" as="targetPoint"/></mxGeometry></mxCell></root></mxGraphModel></diagram></mxfile>